<svg xmlns="http://www.w3.org/2000/svg" xmlns:xlink="http://www.w3.org/1999/xlink" version="1.1" x="0px" y="0px" style="enable-background:new 0 0 283.5 141.7;" xml:space="preserve" viewBox="46.5 51.8 186.4 41.5">
<style type="text/css">
	.st0{fill:#1A3968;}
	.st1{fill:none;}
	.st2{fill:#33AFAD;}
</style>
<g id="Camada_1">
	<g>
		<g>
			<path class="st0" d="M124.7,81.6c-0.1,0-0.2,0-0.3,0c-1.8,0.1-8.9,0-9.5-0.1c-0.7-1.5-1.5-3-2.2-4.5c-0.6-0.1-16.2-0.1-17,0     c-0.7,1.5-1.4,3-2.1,4.5c-0.7,0.1-9.3,0.1-9.8,0c0-0.1,0-0.2,0.1-0.3c5-9.8,10-19.5,15-29.3c3.6,0,7.2,0,10.7,0     c0.3,0.5,14.5,27.9,15.1,29.3C124.7,81.4,124.7,81.5,124.7,81.6z M104.2,59.7c-1.7,3.3-3.2,6.5-4.8,9.7c0,0.1,0,0.2-0.1,0.3     c0.1,0,0.1,0.1,0.2,0.1c3.2,0,6.4,0,9.6,0c0.1,0,0.1,0,0.2-0.1c0-0.1,0-0.2,0-0.2C107.6,66.3,105.9,63.1,104.2,59.7z"/>
			<path class="st0" d="M223.3,81.7c-0.7-1.5-1.5-3-2.2-4.5c-0.1,0-0.1,0-0.1-0.1c0,0,0,0-0.1,0c-5.5,0-11,0-16.4,0     c-0.1,0-0.2,0-0.4,0c-0.8,1.5-1.4,3-2.2,4.5c0,0-0.1,0-0.1,0c0,0,0,0-0.1,0c-0.2,0-0.3,0-0.5,0c-3,0-6,0-9,0c0,0-0.1,0-0.2,0     c0-0.3,0.2-0.5,0.3-0.7c1.6-3.1,3.1-6.1,4.7-9.2c3.2-6.3,6.5-12.6,9.7-18.9c0.1-0.2,0.2-0.5,0.4-0.7c0.6-0.1,9.8-0.1,10.7,0     c0,0,0,0,0.1,0s0,0,0,0.1c0.1,0.3,0.3,0.5,0.4,0.8c4.9,9.5,9.7,18.9,14.6,28.4c0,0,0,0.1,0,0.1c0,0,0,0,0,0.1c0,0,0,0,0,0.1     c0,0,0,0-0.1,0c-3,0-6,0-9.1,0C223.8,81.7,223.6,81.7,223.3,81.7z M217.7,69.8c0-0.1,0-0.1,0-0.1c0,0,0-0.1,0-0.1     c-1.6-3.1-3.2-6.3-4.9-9.5c0-0.1-0.1-0.1-0.2-0.2c-0.3,0.4-4.3,8.3-4.8,9.6c0,0.1,0,0.2-0.1,0.3c0.1,0,0.2,0,0.3,0     C211.3,69.8,214.5,69.8,217.7,69.8z"/>
			<path class="st0" d="M134.7,62.8c0.2,0,0.4,0,0.6,0c1.5,0,3,0,4.5,0c0.4,0,0.7-0.1,1-0.4c2-2.2,4-4.3,6-6.5c1-1.1,2-2.2,3-3.2     c0.2-0.2,0.3-0.4,0.5-0.6c3.7,0,7.3,0,10.9,0c0.1,0.3-0.1,0.3-0.2,0.4c-0.1,0.1-0.2,0.2-0.3,0.3c-2.2,2.2-4.3,4.4-6.5,6.6     c-2.1,2.1-4.2,4.2-6.3,6.4c-0.2,0.2-0.3,0.4-0.5,0.6c1.6,1.7,3.3,3.4,4.9,5.1c1.6,1.7,3.3,3.4,4.9,5.1c1.6,1.7,3.3,3.4,4.9,5.1     c-0.2,0.2-0.4,0.2-0.6,0.2c-2.7,0-5.5,0-8.2,0c-0.9,0-1.7,0-2.7,0c-3.4-3.9-6.9-7.7-10.3-11.6c-0.9-0.1-5.3-0.1-5.9,0     c-0.1,0.2-0.1,0.5-0.1,0.8c0,3.3,0,6.5,0,9.8c0,0.3,0,0.5,0,0.8c-0.2,0-0.3,0.1-0.4,0.1c-2.7,0-5.3,0-8,0c-0.1,0-0.1,0-0.3,0     c0-0.1-0.1-0.3-0.1-0.4c0-0.2,0-0.4,0-0.6c0-9.2,0-18.3,0-27.5c0-0.3,0-0.6,0-1c0.2,0,0.3-0.1,0.5-0.1c2.6,0,5.1,0,7.7,0     c0.1,0,0.3,0,0.4,0c0.2,0.3,0.1,0.5,0.1,0.8c0,3,0,6,0,9C134.6,62.2,134.6,62.4,134.7,62.8z"/>
			<path class="st0" d="M56.1,74.2c1.1,0.1,2,0,2.9,0c1,0,1.9,0,2.9,0c0.9,0,1.9,0,2.8,0c1,0,1.9,0,2.9,0c0.9,0,1.9,0,2.8,0     c1,0,1.9,0,2.9,0c0.9,0,1.9,0,2.8,0c1,0,1.9,0,2.9,0c0.9,0,1.9,0,2.9,0c0.1,0.8,0,1.7,0,2.5c0,0.8,0,1.6,0,2.4c0,0.8,0,1.6,0,2.5     c-0.2,0-0.3,0-0.4,0.1c-0.2,0-0.3,0-0.5,0c-11.2,0-22.3,0-33.5,0c-0.3,0-0.6,0-0.9,0c0-0.2-0.1-0.3-0.1-0.4c0-2.2,0-4.4,0-6.6     c0-0.4,0.2-0.6,0.3-0.9c1.6-2,3.1-4.1,4.7-6.2c3.8-5.1,7.7-10.1,11.5-15.2c0.2-0.2,0.3,0.6,0.5,0.4c1,0,2.1,0,3.1,0     c1,0,2,0,3.1,0c1,0,2.1,0,3.1,0c0.1,0.3-0.1-0.6-0.2-0.5c-1.4,1.8-2.8,3.7-4.2,5.5c-3.9,5.2-7.9,10.4-11.8,15.6     C56.4,73.6,56.3,73.8,56.1,74.2z"/>
			<path class="st0" d="M175.9,59.4c-1,0-1.9,0-2.8,0c-0.9,0-1.8,0-2.8,0c-0.9,0-1.8,0-2.7,0c-0.9,0-1.8,0-2.8,0     c-0.9,0-1.8,0.1-2.6,0c-0.1-0.1-0.1-0.1-0.1-0.1c0,0,0,0,0-0.1c0-0.2,0-0.4,0-0.6c0-2.1,0-4.2,0-6.2c0,0,0-0.1,0.1-0.2     c0.1,0,0.2,0,0.4-0.1c0.2,0,0.4,0,0.6,0c11.3,0,22.7,0,34,0c0.3,0,0.6,0,1,0.1c0,0.2,0,0.3,0,0.4c0.1,2.4,0,6-0.1,6.7     c-0.2,0.2-0.5,0.1-0.7,0.1c-2.1,0-4.2,0-6.2,0c-1.9,0-3.8,0-5.7,0c-0.3,0-0.5,0-0.9,0c0,0.2-0.1,0.3-0.1,0.5c0,0.2,0,0.5,0,0.7     c0,6.7,0,13.4,0,20.1c0,0.3,0,0.6,0,0.9c-0.2,0-0.3,0.1-0.4,0.1c-2.6,0-5.3,0-7.9,0c-0.1,0-0.2,0-0.3,0c0-0.1-0.1-0.3-0.1-0.4     c0-0.2,0-0.4,0-0.7c0-6.7,0-13.5,0-20.2C175.9,60.1,175.9,59.8,175.9,59.4z"/>
		</g>
	</g>
</g>
<g id="Camada_2">
	<g>
		<path class="st1" d="M43.7,49.1v25.1h17.6c3.6-4.7,7.1-9.4,10.7-14.1c0.1-0.2,0.3-0.4,0.4-0.6c-0.1-0.2-0.2-0.1-0.3-0.2    c-0.2,0-0.4,0-0.7,0c-7.9,0-15.9,0-23.8,0c-0.3,0-0.6,0-0.9,0c0-0.2-0.1-0.3-0.1-0.4c0-2.2,0-4.4,0-6.6c0-0.1,0-0.2,0-0.4    c0.2,0,0.3-0.1,0.4-0.1c0.2,0,0.3,0,0.5,0c11.2,0,22.3,0,33.5,0c0.3,0,0.6,0,0.9,0c0.2,0.2,0.2,0.5,0.2,0.7c0,1.7,0,3.4,0,5.1    c0,0.3,0,0.7,0,1c0,0.4-0.1,0.8-0.4,1.2c-1.6,2.1-3.2,4.2-4.8,6.3c-2,2.7-4.1,5.4-6.1,8.1h14.8V49.1H43.7z"/>
		<path class="st2" d="M81.6,59.8c0.3-0.4,0.4-0.7,0.4-1.2c0-0.3,0-0.6,0-1c0-1.7,0-3.4,0-5.1c0-0.2,0.1-0.5-0.2-0.7    c-0.3,0-0.6,0-0.9,0c-11.2,0-22.3,0-33.5,0c-0.2,0-0.4,0-0.5,0c-0.1,0-0.3,0-0.4,0.1c0,0.2,0,0.3,0,0.4c0,2.2,0,4.4,0,6.6    c0,0.1,0,0.3,0.1,0.4c0.3,0,0.6,0,0.9,0c7.9,0,15.9,0,23.8,0c0.2,0,0.4,0,0.7,0c0.1,0,0.2,0,0.3,0.2c-0.1,0.2-0.3,0.4-0.4,0.6    c-3.6,4.7-7.1,9.4-10.7,14.1h9.5c2-2.7,4.1-5.4,6.1-8.1C78.4,64,80,61.9,81.6,59.8z"/>
	</g>
</g>
<g id="Camada_4">
	<g>
		<path class="st2" d="M175.1,93.1h-0.7v-5.2h-1.8v-0.6h4.2v0.6h-1.8V93.1z"/>
		<path class="st2" d="M182.5,92.5v0.6H179v-5.8h3.5v0.6h-2.8v1.9h2.6v0.6h-2.6v2.1H182.5z"/>
		<path class="st2" d="M185.5,89.8v0.9c0,0.7,0.1,1.2,0.4,1.5c0.3,0.3,0.7,0.5,1.2,0.5c0.4,0,0.8-0.1,1.1-0.4s0.4-0.5,0.4-0.9h0.7    c0,0.2,0,0.4-0.1,0.6c-0.1,0.2-0.2,0.4-0.4,0.6s-0.4,0.3-0.7,0.5c-0.3,0.1-0.6,0.2-1,0.2c-0.7,0-1.2-0.2-1.6-0.7    c-0.4-0.4-0.6-1.1-0.6-1.9v-0.9c0-0.8,0.2-1.5,0.6-1.9c0.4-0.5,1-0.7,1.6-0.7c0.3,0,0.7,0.1,0.9,0.2c0.3,0.1,0.5,0.3,0.7,0.5    c0.2,0.2,0.3,0.4,0.4,0.6c0.1,0.2,0.1,0.5,0.1,0.7h-0.7c0-0.3-0.1-0.7-0.4-0.9c-0.3-0.3-0.6-0.4-1.1-0.4c-0.5,0-0.9,0.2-1.1,0.5    C185.6,88.7,185.5,89.2,185.5,89.8z"/>
		<path class="st2" d="M192.4,93.1h-0.7v-5.8h0.7l3,4.7h0v-4.7h0.7v5.8h-0.7l-3-4.7h0V93.1z"/>
		<path class="st2" d="M198.6,90.7v-0.9c0-0.8,0.2-1.5,0.6-1.9c0.4-0.5,1-0.7,1.7-0.7s1.3,0.2,1.7,0.7c0.4,0.5,0.6,1.1,0.6,1.9v0.9    c0,0.8-0.2,1.4-0.6,1.9c-0.4,0.4-1,0.7-1.7,0.7c-0.7,0-1.3-0.2-1.7-0.7C198.8,92.1,198.6,91.5,198.6,90.7z M199.3,89.8v0.9    c0,0.3,0,0.6,0.1,0.9c0.1,0.3,0.2,0.5,0.3,0.6c0.1,0.2,0.3,0.3,0.5,0.4c0.2,0.1,0.4,0.1,0.6,0.1c0.2,0,0.4,0,0.6-0.1    c0.2-0.1,0.4-0.2,0.5-0.4c0.1-0.2,0.3-0.4,0.3-0.6s0.1-0.5,0.1-0.9v-0.9c0-0.6-0.2-1.1-0.5-1.5c-0.3-0.3-0.7-0.5-1.2-0.5    c-0.5,0-0.9,0.2-1.2,0.5C199.5,88.7,199.3,89.2,199.3,89.8z"/>
		<path class="st2" d="M209.2,92.5v0.6h-3.4v-5.8h0.7v5.2H209.2z"/>
		<path class="st2" d="M211.1,90.7v-0.9c0-0.8,0.2-1.5,0.6-1.9c0.4-0.5,1-0.7,1.7-0.7s1.3,0.2,1.7,0.7c0.4,0.5,0.6,1.1,0.6,1.9v0.9    c0,0.8-0.2,1.4-0.6,1.9c-0.4,0.4-1,0.7-1.7,0.7c-0.7,0-1.3-0.2-1.7-0.7C211.3,92.1,211.1,91.5,211.1,90.7z M211.8,89.8v0.9    c0,0.3,0,0.6,0.1,0.9c0.1,0.3,0.2,0.5,0.3,0.6c0.1,0.2,0.3,0.3,0.5,0.4c0.2,0.1,0.4,0.1,0.6,0.1c0.2,0,0.4,0,0.6-0.1    c0.2-0.1,0.4-0.2,0.5-0.4c0.1-0.2,0.3-0.4,0.3-0.6s0.1-0.5,0.1-0.9v-0.9c0-0.6-0.2-1.1-0.5-1.5c-0.3-0.3-0.7-0.5-1.2-0.5    c-0.5,0-0.9,0.2-1.2,0.5C211.9,88.7,211.8,89.2,211.8,89.8z"/>
		<path class="st2" d="M222.5,89.1h-0.7c-0.1-0.4-0.2-0.7-0.5-1c-0.3-0.2-0.6-0.3-1-0.3c-0.5,0-0.9,0.2-1.2,0.5    c-0.3,0.3-0.5,0.8-0.5,1.5v0.8c0,0.6,0.1,1.1,0.4,1.5s0.7,0.5,1.2,0.5c0.4,0,0.8-0.1,1.1-0.4c0.3-0.2,0.4-0.6,0.4-0.9v-0.6h-1.6    v-0.6h2.2v1.2c0,0.2,0,0.3-0.1,0.5s-0.1,0.3-0.2,0.5c-0.1,0.2-0.2,0.3-0.4,0.5c-0.2,0.1-0.4,0.2-0.6,0.3c-0.3,0.1-0.5,0.1-0.9,0.1    c-0.7,0-1.3-0.2-1.7-0.7c-0.4-0.5-0.6-1.1-0.6-1.9v-0.8c0-0.8,0.2-1.5,0.6-1.9c0.4-0.5,1-0.7,1.7-0.7c0.6,0,1.1,0.2,1.5,0.5    C222.2,88.1,222.4,88.5,222.5,89.1z"/>
		<path class="st2" d="M225.7,93.1H225v-5.8h0.7V93.1z"/>
		<path class="st2" d="M228.6,93.1h-0.7l2.1-5.8h0.7l2.1,5.8H232l-0.6-1.8h-2.2L228.6,93.1z M230.3,88.2L230.3,88.2l-0.9,2.6h1.8    L230.3,88.2z"/>
	</g>
</g>
</svg>